<svg xmlns="http://www.w3.org/2000/svg" viewBox="0 0 1200 630" width="1200" height="630" role="img" aria-label="The Agraz Family">
  <defs>
    <linearGradient id="bg" x1="0" y1="0" x2="0" y2="1">
      <stop offset="0" stop-color="#0a1b1f"/>
      <stop offset=".45" stop-color="#0d2630"/>
      <stop offset="1" stop-color="#1a3a4a"/>
    </linearGradient>
    <linearGradient id="sun" x1="0" y1="0" x2="0" y2="1">
      <stop offset="0" stop-color="#e8c49a"/>
      <stop offset="1" stop-color="#d4856a"/>
    </linearGradient>
    <linearGradient id="wm" x1="0" y1="0" x2="1" y2="0">
      <stop offset="0" stop-color="#86dcc2"/>
      <stop offset="1" stop-color="#e8c49a"/>
    </linearGradient>
  </defs>
  <rect width="1200" height="630" fill="url(#bg)"/>
  <circle cx="600" cy="232" r="88" fill="url(#sun)" opacity=".95"/>
  <circle cx="980" cy="120" r="2.5" fill="#fff" opacity=".7"/>
  <circle cx="240" cy="150" r="2" fill="#fff" opacity=".6"/>
  <circle cx="1050" cy="240" r="2" fill="#fff" opacity=".5"/>
  <circle cx="170" cy="250" r="1.6" fill="#fff" opacity=".5"/>
  <text x="600" y="430" text-anchor="middle" font-family="Georgia, 'Times New Roman', serif" font-size="92" font-weight="700" fill="url(#wm)">The Agraz Family</text>
  <text x="600" y="486" text-anchor="middle" font-family="Georgia, serif" font-style="italic" font-size="34" fill="#b6c6c5">Where the ocean meets home</text>
  <path d="M0 520 q90 -34 180 0 t180 0 180 0 180 0 180 0 180 0 120 0 V630 H0 Z" fill="#5fb8a0" opacity=".9"/>
  <path d="M0 560 q90 -30 180 0 t180 0 180 0 180 0 180 0 180 0 120 0 V630 H0 Z" fill="#e8dcc8" opacity=".85"/>
</svg>
